HIERARCHY
ROOT Hips
{
	OFFSET 0.000000 0.000000 0.000000
	CHANNELS 6 Xposition Yposition Zposition Zrotation Yrotation Xrotation 
	JOINT LHipJoint
	{
		OFFSET 0.000000 0.000000 0.000000
		CHANNELS 3 Zrotation Yrotation Xrotation
		JOINT LeftUpLeg
		{
			OFFSET 1.363060 -1.794630 0.839290
			CHANNELS 3 Zrotation Yrotation Xrotation
			JOINT LeftLeg
			{
				OFFSET 2.448110 -6.726130 0.000000
				CHANNELS 3 Zrotation Yrotation Xrotation
				JOINT LeftFoot
				{
					OFFSET 2.562200 -7.039590 0.000000
					CHANNELS 3 Zrotation Yrotation Xrotation
					JOINT LeftToeBase
					{
						OFFSET 0.157640 -0.433110 2.322550
						CHANNELS 3 Zrotation Yrotation Xrotation
						End Site
						{
							OFFSET 0.000000 0.000000 0.000000
						}
					}
				}
			}
		}
	}
	JOINT RHipJoint
	{
		OFFSET 0.000000 0.000000 0.000000
		CHANNELS 3 Zrotation Yrotation Xrotation
		JOINT RightUpLeg
		{
			OFFSET -1.305520 -1.794630 0.839290
			CHANNELS 3 Zrotation Yrotation Xrotation
			JOINT RightLeg
			{
				OFFSET -2.542530 -6.985550 0.000000
				CHANNELS 3 Zrotation Yrotation Xrotation
				JOINT RightFoot
				{
					OFFSET -2.568260 -7.056230 0.000000
					CHANNELS 3 Zrotation Yrotation Xrotation
					JOINT RightToeBase
					{
						OFFSET -0.164730 -0.452590 2.363150
						CHANNELS 3 Zrotation Yrotation Xrotation
						End Site
						{
							OFFSET 0.000000 0.000000 0.000000
						}
					}
				}
			}
		}
	}
	JOINT LowerBack
	{
		OFFSET 0.000000 0.000000 0.000000
		CHANNELS 3 Zrotation Yrotation Xrotation
		JOINT Spine
		{
			OFFSET 0.028270 2.035590 -0.193380
			CHANNELS 3 Zrotation Yrotation Xrotation
			JOINT Spine1
			{
				OFFSET 0.056720 2.048850 -0.042750
				CHANNELS 3 Zrotation Yrotation Xrotation
				JOINT Neck
				{
					OFFSET 0.000000 0.000000 0.000000
					CHANNELS 3 Zrotation Yrotation Xrotation
					JOINT Neck1
					{
						OFFSET -0.054170 1.746240 0.172020
						CHANNELS 3 Zrotation Yrotation Xrotation
						JOINT Head
						{
							OFFSET 0.104070 1.761360 -0.123970
							CHANNELS 3 Zrotation Yrotation Xrotation
							End Site
							{
								OFFSET 0.000000 0.000000 0.000000
							}
						}
					}
				}
				JOINT LeftShoulder
				{
					OFFSET 0.000000 0.000000 0.000000
					CHANNELS 3 Zrotation Yrotation Xrotation
					JOINT LeftArm
					{
						OFFSET 3.362410 1.200890 -0.311210
						CHANNELS 3 Zrotation Yrotation Xrotation
						JOINT LeftForeArm
						{
							OFFSET 4.983000 -0.000000 -0.000000
							CHANNELS 3 Zrotation Yrotation Xrotation
							JOINT LeftHand
							{
								OFFSET 3.483560 -0.000000 -0.000000
								CHANNELS 3 Zrotation Yrotation Xrotation
								JOINT LeftFingerBase
								{
									OFFSET 0.000000 0.000000 0.000000
									CHANNELS 3 Zrotation Yrotation Xrotation
									JOINT LeftHandIndex1
									{
										OFFSET 0.715260 -0.000000 -0.000000
										CHANNELS 3 Zrotation Yrotation Xrotation
										End Site
										{
											OFFSET 0.000000 0.000000 0.000000
										}
									}
								}
								JOINT LThumb
								{
									OFFSET 0.000000 0.000000 0.000000
									CHANNELS 3 Zrotation Yrotation Xrotation
									End Site
									{
										OFFSET 0.000000 0.000000 0.000000
									}
								}
							}
						}
					}
				}
				JOINT RightShoulder
				{
					OFFSET 0.000000 0.000000 0.000000
					CHANNELS 3 Zrotation Yrotation Xrotation
					JOINT RightArm
					{
						OFFSET -3.136600 1.374050 -0.404650
						CHANNELS 3 Zrotation Yrotation Xrotation
						JOINT RightForeArm
						{
							OFFSET -5.241900 -0.000000 -0.000000
							CHANNELS 3 Zrotation Yrotation Xrotation
							JOINT RightHand
							{
								OFFSET -3.444170 -0.000000 -0.000000
								CHANNELS 3 Zrotation Yrotation Xrotation
								JOINT RightFingerBase
								{
									OFFSET 0.000000 0.000000 0.000000
									CHANNELS 3 Zrotation Yrotation Xrotation
									JOINT RightHandIndex1
									{
										OFFSET -0.622530 -0.000000 -0.000000
										CHANNELS 3 Zrotation Yrotation Xrotation
										End Site
										{
											OFFSET 0.000000 0.000000 0.000000
										}
									}
								}
								JOINT RThumb
								{
									OFFSET 0.000000 0.000000 0.000000
									CHANNELS 3 Zrotation Yrotation Xrotation
									End Site
									{
										OFFSET 0.000000 0.000000 0.000000
									}
								}
							}
						}
					}
				}
			}
		}
	}
}
MOTION
Frames: 9
Frame Time: 0.016667
-1.316509 17.136195 24.142983 1.002645 0.564004 9.103770 -15.775673 6.574888 -6.307940 -11.181155 -7.623705 -20.116765 1.264586 1.654589 5.098727 -0.859947 2.820386 8.076057 0.000000 0.000000 0.000000 5.604236 -15.361143 9.457615 8.264448 10.075789 -9.659164 5.983538 -13.100475 36.207919 8.909406 -11.829549 4.992564 0.000000 0.000000 0.000000 10.925350 6.076135 3.422676 -14.698215 3.496717 9.626185 2.038301 2.222019 -10.239588 1.501798 -0.230103 -0.441963 -1.870420 -0.030219 -2.435046 0.000000 0.000000 0.000000 -2.241752 11.688232 0.336353 -57.930670 -8.494161 0.460629 -15.675673 13.548889 0.040957 0.273221 -6.301054 0.020388 0.275952 -6.301171 0.000000 0.000000 0.000000 0.000000 0.000000 0.000000 0.000000 2.603350 -11.474054 2.225835 56.510377 12.521775 -2.413532 -3.773206 58.743650 -0.066187 -0.959720 0.364258 -0.033141 -0.961558 0.363806 0.000000 0.000000 0.000000 0.000000 0.000000 0.000000 0.000000 
-1.315067 17.156866 24.335998 1.411698 0.341378 9.164064 -15.732728 6.788064 -6.282577 -11.217103 -7.491014 -20.141955 0.419075 2.314620 6.331619 -0.803811 2.382358 6.232145 0.000000 0.000000 0.000000 5.903436 -15.156579 9.516032 7.933935 9.964882 -9.644049 4.829475 -12.941082 36.565106 9.257278 -13.057820 6.876049 0.000000 0.000000 0.000000 10.926508 5.956757 3.374020 -15.311463 3.289043 9.365269 2.016172 1.984115 -10.110747 1.227066 -0.161043 -0.628764 -1.553374 -0.007956 -2.226721 0.000000 0.000000 0.000000 -2.080671 11.494807 0.396194 -57.932688 -8.500804 0.432524 -15.888375 13.600464 0.035243 0.330472 -6.398694 0.017523 0.333551 -6.398766 0.000000 0.000000 0.000000 0.000000 0.000000 0.000000 0.000000 2.676238 -11.568928 2.503391 57.119337 12.376428 -2.405794 -2.821142 57.611533 -0.055304 -0.923725 0.510158 -0.027691 -0.925264 0.509799 0.000000 0.000000 0.000000 0.000000 0.000000 0.000000 0.000000 
-1.311432 17.177971 24.525488 1.778016 0.049726 9.236054 -15.756632 6.953816 -6.243046 -11.115406 -7.363137 -20.246775 -0.369377 3.008086 7.592698 -0.746959 2.011762 4.510369 0.000000 0.000000 0.000000 6.230709 -14.917050 9.567108 7.537853 9.847220 -9.642842 3.784702 -12.791121 36.859661 9.543387 -14.307374 8.830495 0.000000 0.000000 0.000000 10.917902 5.830996 3.348257 -15.833557 3.066722 8.972524 1.929431 1.754677 -9.914610 1.019278 -0.096812 -0.726649 -1.239798 0.014154 -2.047529 0.000000 0.000000 0.000000 -2.085922 11.328811 0.474901 -57.786730 -8.441943 0.411985 -16.008247 13.431481 0.028462 0.380089 -6.427244 0.014127 0.383437 -6.427270 0.000000 0.000000 0.000000 0.000000 0.000000 0.000000 0.000000 2.789464 -11.653938 2.803063 57.632961 12.159938 -2.371151 -1.700635 56.285092 -0.046057 -0.897428 0.674231 -0.023061 -0.898743 0.673943 0.000000 0.000000 0.000000 0.000000 0.000000 0.000000 0.000000 
-1.307478 17.199199 24.710671 2.105376 -0.265219 9.315740 -15.770528 7.112534 -6.186820 -11.024651 -7.252571 -20.331757 -1.046083 3.645145 8.733626 -0.695149 1.706839 3.004041 0.000000 0.000000 0.000000 6.562215 -14.661792 9.626304 7.029138 9.714428 -9.682790 3.004033 -12.685470 37.092366 9.789455 -15.614066 10.852855 0.000000 0.000000 0.000000 10.854880 5.694908 3.332358 -16.218866 2.825796 8.456214 1.795719 1.536231 -9.663761 0.878976 -0.038259 -0.775338 -0.938233 0.034898 -1.886587 0.000000 0.000000 0.000000 -2.191378 11.207997 0.592465 -57.556473 -8.325528 0.388367 -16.283227 13.057452 0.019010 0.422284 -6.393770 0.009400 0.425886 -6.393753 0.000000 0.000000 0.000000 0.000000 0.000000 0.000000 0.000000 2.893258 -11.758630 3.149786 58.091932 11.861985 -2.326132 -0.551264 54.945629 -0.038501 -0.881877 0.860022 -0.019279 -0.883050 0.859780 0.000000 0.000000 0.000000 0.000000 0.000000 0.000000 0.000000 
-1.302704 17.220099 24.891484 2.393625 -0.598865 9.400653 -15.760750 7.277763 -6.118824 -10.975923 -7.160686 -20.384194 -1.606670 4.216680 9.751453 -0.649592 1.451180 1.685199 0.000000 0.000000 0.000000 6.884776 -14.400032 9.691876 6.426925 9.563267 -9.758452 2.473731 -12.615949 37.277183 9.985836 -16.955403 12.915616 0.000000 0.000000 0.000000 10.735914 5.547056 3.326759 -16.460738 2.566345 7.819945 1.611501 1.329280 -9.361703 0.808433 0.015438 -0.771779 -0.647905 0.054602 -1.744738 0.000000 0.000000 0.000000 -2.401124 11.134354 0.746136 -57.247702 -8.154417 0.362361 -16.692205 12.484070 0.007389 0.457862 -6.296599 0.003590 0.461680 -6.296545 0.000000 0.000000 0.000000 0.000000 0.000000 0.000000 0.000000 2.985304 -11.884705 3.541232 58.488630 11.482665 -2.267021 0.636646 53.562758 -0.032529 -0.876540 1.071403 -0.016292 -0.877649 1.071186 0.000000 0.000000 0.000000 0.000000 0.000000 0.000000 0.000000 
-1.302066 17.242525 25.066689 2.665703 -0.882257 9.486179 -15.710999 7.462405 -6.029572 -11.031675 -7.119854 -20.385243 -2.010109 4.675817 10.637730 -0.610317 1.231639 0.632581 0.000000 0.000000 0.000000 7.304998 -14.100986 9.751421 5.718679 9.358536 -9.888578 2.028773 -12.604516 37.458637 10.159340 -18.366949 14.985505 0.000000 0.000000 0.000000 10.470089 5.373441 3.300334 -16.488956 2.292644 7.134183 1.380792 1.137961 -9.086651 0.661614 0.088644 -0.884503 -0.281858 0.076708 -1.529188 0.000000 0.000000 0.000000 -2.563603 11.068080 0.993035 -57.161813 -7.939050 0.354928 -17.033548 11.798158 -0.002576 0.464198 -6.144774 -0.001387 0.468048 -6.144707 0.000000 0.000000 0.000000 0.000000 0.000000 0.000000 0.000000 3.061513 -12.034488 3.973515 58.867281 11.055477 -2.277012 1.498412 52.353180 -0.027223 -0.870622 1.279317 -0.013639 -0.871693 1.279118 0.000000 0.000000 0.000000 0.000000 0.000000 0.000000 0.000000 
-1.306347 17.266302 25.236301 2.922787 -1.107401 9.573344 -15.608014 7.678820 -5.924221 -11.224742 -7.135158 -20.324498 -2.234294 5.008514 11.392928 -0.578137 1.028639 -0.174209 0.000000 0.000000 0.000000 7.820162 -13.766926 9.804443 4.911377 9.094409 -10.070173 1.668763 -12.652316 37.641511 10.305968 -19.843771 17.052247 0.000000 0.000000 0.000000 10.047173 5.168591 3.254637 -16.286932 2.003704 6.388145 1.096383 0.961481 -8.835160 0.436115 0.184516 -1.120084 0.166936 0.100938 -1.234077 0.000000 0.000000 0.000000 -2.680427 11.008089 1.335149 -57.315137 -7.681544 0.365184 -17.281287 11.006151 -0.010184 0.440220 -5.939740 -0.005181 0.443908 -5.939683 0.000000 0.000000 0.000000 0.000000 0.000000 0.000000 0.000000 3.118642 -12.210020 4.460210 59.236829 10.572018 -2.346782 2.019271 51.367548 -0.022382 -0.868178 1.485355 -0.011219 -0.869230 1.485167 0.000000 0.000000 0.000000 0.000000 0.000000 0.000000 0.000000 
-1.309790 17.293188 25.400813 3.137451 -1.295605 9.664789 -15.624486 7.821044 -5.766216 -11.250534 -7.172176 -20.352040 -2.373181 5.313518 12.144291 -0.548720 0.842607 -0.865624 0.000000 0.000000 0.000000 8.381789 -13.417165 9.835955 4.069694 8.799330 -10.266705 1.394726 -12.719879 37.816755 10.452805 -21.434518 19.132434 0.000000 0.000000 0.000000 9.667480 4.988637 3.173955 -16.046609 1.747088 5.614441 0.797507 0.824308 -8.585526 0.144526 0.290295 -1.500618 0.632741 0.121937 -0.876487 0.000000 0.000000 0.000000 -2.751248 10.876698 1.733545 -57.635232 -7.365373 0.401209 -17.020483 10.369386 -0.010624 0.389015 -5.727195 -0.005389 0.392292 -5.727159 0.000000 0.000000 0.000000 0.000000 0.000000 0.000000 0.000000 3.186166 -12.290321 4.920368 59.520543 10.127862 -2.567461 1.907571 50.695444 -0.018787 -0.863363 1.615506 -0.009422 -0.864381 1.615326 0.000000 0.000000 0.000000 0.000000 0.000000 0.000000 0.000000 
-1.312865 17.323417 25.560378 3.269189 -1.450773 9.787095 -15.731806 7.884728 -5.583079 -11.104385 -7.226748 -20.470842 -2.412403 5.589298 12.895017 -0.522239 0.666005 -1.453285 0.000000 0.000000 0.000000 9.026064 -13.029277 9.825673 3.204208 8.466530 -10.478734 1.213527 -12.799325 37.989208 10.610456 -23.155164 21.201739 0.000000 0.000000 0.000000 9.233874 4.804379 3.131891 -15.487087 1.548192 5.120643 0.409916 0.723318 -8.547153 -0.135190 0.388213 -1.542143 1.079574 0.141420 -0.569831 0.000000 0.000000 0.000000 -2.934070 10.973055 1.972758 -58.034376 -7.129319 0.494384 -16.295053 9.929243 -0.004028 0.285945 -5.506223 -0.002077 0.288563 -5.506225 0.000000 0.000000 0.000000 0.000000 0.000000 0.000000 0.000000 3.259676 -12.569128 5.128313 59.670430 9.853077 -2.816392 1.365406 50.459419 -0.015186 -0.848414 1.662926 -0.007619 -0.849335 1.662765 0.000000 0.000000 0.000000 0.000000 0.000000 0.000000 0.000000 
